<?xml version="1.0" encoding="UTF-8"?><svg id="a" xmlns="http://www.w3.org/2000/svg" width="99.5" height="99.5" viewBox="0 0 99.5 99.5"><circle cx="49.8" cy="49.8" r="49.8" transform="translate(-20.6 49.8) rotate(-45)" fill="#da6c1a"/><g><path d="M49.8,24.6c8.8,0,16,7.2,16,16s-9.7,23.4-16,31.7c-6.3-8.3-16-23-16-31.7s7.2-16,16-16m0-4.1c-11.1,0-20.1,9-20.1,20.1s20.1,38.4,20.1,38.4c0,0,20.1-24.2,20.1-38.4s-9-20.1-20.1-20.1h0Z" fill="#241e1f"/><path d="M49.8,35.6c2.8,0,5.1,2.3,5.1,5.1s-2.3,5.1-5.1,5.1-5.1-2.3-5.1-5.1,2.3-5.1,5.1-5.1m0-4.1c-5.1,0-9.2,4.1-9.2,9.2s4.1,9.2,9.2,9.2,9.2-4.1,9.2-9.2-4.1-9.2-9.2-9.2h0Z" fill="#241e1f"/></g></svg>