<svg height="99.2" viewBox="0 0 99.2 99.2" width="99.2" xmlns="http://www.w3.org/2000/svg"><rect fill="#da6c1a" height="99.2" rx="49.6" width="99.2"/><g fill="#241e1f"><path d="m49.6 26.8c7.4 0 8.3 0 11.2.2 1.8 0 3.5.3 5.2 1 2.4.9 4.3 2.8 5.3 5.3.6 1.6.9 3.4 1 5.2.1 2.9.2 3.8.2 11.2s0 8.3-.2 11.2c0 1.8-.3 3.5-1 5.2-.9 2.4-2.8 4.3-5.3 5.3-1.6.6-3.4.9-5.2 1-2.9.1-3.8.2-11.2.2s-8.3 0-11.2-.2c-1.8 0-3.5-.3-5.2-1-2.4-.9-4.3-2.8-5.3-5.3-.6-1.6-.9-3.4-1-5.2-.1-2.9-.2-3.8-.2-11.2s0-8.3.2-11.2c0-1.8.3-3.5 1-5.2.9-2.4 2.8-4.3 5.3-5.3 1.6-.6 3.4-.9 5.2-1 2.9-.1 3.8-.2 11.2-.2m0-5c-7.5 0-8.5 0-11.4.2-2.3 0-4.6.5-6.7 1.3-3.8 1.4-6.7 4.4-8.2 8.2-.8 2.2-1.2 4.4-1.3 6.7-.1 3-.2 3.9-.2 11.4s0 8.5.2 11.4c0 2.3.5 4.6 1.3 6.7 1.4 3.8 4.4 6.7 8.2 8.2 2.2.8 4.4 1.2 6.7 1.3 3 .1 3.9.2 11.4.2s8.5 0 11.4-.2c2.3 0 4.6-.5 6.7-1.3 3.8-1.4 6.7-4.4 8.2-8.2.8-2.2 1.2-4.4 1.3-6.7.1-3 .2-3.9.2-11.4s0-8.5-.2-11.4c0-2.3-.5-4.6-1.3-6.7-1.4-3.8-4.4-6.7-8.2-8.2-2.2-.8-4.4-1.2-6.7-1.3-3-.1-3.9-.2-11.4-.2z"/><path d="m49.6 35.3c-7.9 0-14.3 6.4-14.3 14.3s6.4 14.3 14.3 14.3 14.3-6.4 14.3-14.3c0-7.9-6.4-14.3-14.3-14.3zm0 23.5c-5.1 0-9.3-4.1-9.3-9.3s4.1-9.3 9.3-9.3 9.3 4.1 9.3 9.3c0 5.1-4.1 9.3-9.3 9.3z"/><path d="m64.4 31.4c1.8 0 3.3 1.5 3.3 3.3s-1.5 3.3-3.3 3.3-3.3-1.5-3.3-3.3 1.5-3.3 3.3-3.3z"/></g></svg>