<svg height="99.5" viewBox="0 0 99.5 99.5" width="99.5" xmlns="http://www.w3.org/2000/svg"><circle cx="49.8" cy="49.8" fill="#da6c1a" r="49.8" transform="matrix(.70710678 -.70710678 .70710678 .70710678 -20.6 49.8)"/><g fill="#241e1f"><path d="m50.8 53.8c-.6 0-1.1-.1-1.6-.4l-30.9-17.6c-1-.6-1.7-1.7-1.7-2.9v-1.7c0-2.9 2.4-5.4 5.4-5.4h56.4c3.6 0 6.6 3 6.6 6.6v.4c0 1.2-.6 2.3-1.7 2.9l-30.9 17.6c-.5.3-1.1.4-1.6.4zm-30.1-21.4 30.1 17.2 30.1-17.2c0-1.4-1.1-2.5-2.5-2.5h-56.5c-.7 0-1.3.6-1.3 1.3v1.2z"/><path d="m79.6 73.7h-57.7c-3 0-5.4-2.4-5.4-5.4v-25.1c0-.7.4-1.4 1-1.8s1.4-.4 2 0l31.1 17.8 31.1-17.8c.6-.4 1.4-.4 2 0s1 1 1 1.8v25.1c0 2.9-2.4 5.4-5.4 5.4zm-58.9-27v21.6c0 .7.6 1.3 1.3 1.3h57.6c.7 0 1.3-.6 1.3-1.3v-21.6l-28.1 16c-1.2.7-2.8.7-4 0z"/></g></svg>