<svg height="100" viewBox="0 0 100 100" width="100" xmlns="http://www.w3.org/2000/svg"><circle cx="50" cy="50" fill="#da6c1a" r="50" transform="matrix(.15988119 -.98713627 .98713627 .15988119 -7.4 91.3)"/><path d="m64.4 77.8c-5.7 0-14.1-3.7-24.9-18.2l-.6-.8c-6.1-8.2-9.7-15.5-10.6-21.7-1.1-7.6 2-11.6 4.8-13.7l2.1-1.5c.9-.7 2.1-1 3.3-.8 1.1.2 2.2.8 2.9 1.7l6.7 9c1.6 2.1 1.2 5.1-.9 6.6l-1.6 1.2c-1.1.8-1.3 2.5-.4 3.7l11 14.8c.9 1.2 2.5 1.5 3.6.7l1.6-1.2c1-.8 2.3-1.1 3.5-.8 1.2.2 2.3.9 3.1 1.9l6.7 9c.7.9 1 2.1.8 3.2-.2 1.2-.8 2.2-1.7 2.9l-2.1 1.5c-1.5 1.1-3.9 2.4-7.3 2.4zm-26.6-52.6s0 0-.1 0l-2.1 1.5c-2.7 2-3.8 5.3-3.1 9.8.8 5.4 4.2 12.3 9.8 19.8l.6.8c8 10.7 15.7 16.5 21.6 16.5 1.8 0 3.4-.5 4.8-1.6l2.1-1.5s0 0 0-.1c0 0 0-.1 0-.3l-6.7-9c-.2-.2-.3-.3-.4-.3s-.3 0-.4 0l-1.6 1.2c-2.9 2.2-7.2 1.5-9.4-1.5l-11-14.8c-2.2-3-1.7-7.2 1.3-9.4l1.6-1.2c.3-.2.3-.6 0-.9l-6.7-9c0-.1-.2-.1-.2-.1z" fill="#241e1f"/></svg>