<svg id="Ebene_1" data-name="Ebene 1" xmlns="http://www.w3.org/2000/svg" viewBox="0 0 221.64 132.54"><defs><style>.cls-1{fill:#b2b2b2}.cls-2{fill:#fff}</style></defs><path class="cls-1" d="M210.3 95.62"/><path class="cls-1" d="M135.94 146.23c-45.17 0-101.79-25.51-104.18-26.59l-6.64-3V43.31l6.64-3c2.39-1.09 59-26.59 104.18-26.59S237.72 39.2 240.11 40.29l6.65 3v73.31l-6.65 3c-2.39 1.08-59 26.59-104.17 26.59z" transform="translate(-25.12 -13.7)"/><path class="cls-2" d="M135.93 136.88c-43.15 0-99.73-25.5-100.3-25.76l-1.16-.52V49.34l1.16-.53c.57-.26 57.15-25.76 100.3-25.76s99.74 25.5 100.31 25.76l1.16.53v61.26l-1.16.52c-.57.26-57.15 25.76-100.31 25.76zM38.44 108c8.25 3.6 58.59 24.88 97.49 24.88s89.25-21.28 97.5-24.88V51.9c-8.25-3.6-58.59-24.9-97.5-24.9S46.69 48.3 38.44 51.9V108z" transform="translate(-25.12 -13.7)"/><path class="cls-2" d="M65.32 35.35H33.36v13.2h11.9v49.49h10.25V48.55h9.81v-13.2zM67.66 35.4h12.35v62.7H67.66V35.4zM147.84 48.55v-13.2h-23.23v.05h-.13v62.62h.13v.05h23.23V84.86h-11.01V72.37h11.01V61.05h-11.01v-12.5h11.01z"/><path class="cls-2" d="M191.42 88.17v23.54h-12.35V49.1h16.14c6.56 0 13.9 1 13.9 11.11V73c0 6.85.41 9.77-5.77 13.8l7.46 24.86h-12.38l-7-23.48zm3.37-13.47c1.15 0 2.12-1 2.12-2.92v-6.25c0-2.4-1.1-3.21-2.69-3.21h-2.8V74.7zM112.55 96.3v-36c0-7.21 3.7-11.25 13.94-11.25s14.75 3.19 14.75 11.16v12h-11.62V65a2.7 2.7 0 00-2.92-2.74 2.66 2.66 0 00-2.49 2.31v31a3.12 3.12 0 002.79 2.79 2.58 2.58 0 002.58-2.74V86h-3V74.61h14.61V102c0 5.75-2.86 9.8-13.87 9.8s-14.8-5-14.8-11.68V96.3z" transform="translate(-25.12 -13.7)"/></svg>